<?xml version="1.0" encoding="UTF-8" standalone="no"?>
<!-- Created with Inkscape (http://www.inkscape.org/) -->

<svg
   width="1080"
   height="1080"
   viewBox="0 0 285.75 285.75"
   version="1.1"
   id="svg855"
   inkscape:version="1.2.1 (9c6d41e410, 2022-07-14)"
   sodipodi:docname="favicon.svg"
   xmlns:inkscape="http://www.inkscape.org/namespaces/inkscape"
   xmlns:sodipodi="http://sodipodi.sourceforge.net/DTD/sodipodi-0.dtd"
   xmlns="http://www.w3.org/2000/svg"
   xmlns:svg="http://www.w3.org/2000/svg">
  <sodipodi:namedview
     id="namedview857"
     pagecolor="#505050"
     bordercolor="#eeeeee"
     borderopacity="1"
     inkscape:showpageshadow="0"
     inkscape:pageopacity="0"
     inkscape:pagecheckerboard="0"
     inkscape:deskcolor="#505050"
     inkscape:document-units="mm"
     showgrid="false"
     inkscape:zoom="0.33071229"
     inkscape:cx="1155.0826"
     inkscape:cy="601.73149"
     inkscape:window-width="1366"
     inkscape:window-height="705"
     inkscape:window-x="-8"
     inkscape:window-y="-8"
     inkscape:window-maximized="1"
     inkscape:current-layer="layer1" />
  <defs
     id="defs852" />
  <g
     inkscape:label="Layer 1"
     inkscape:groupmode="layer"
     id="layer1">
    <path
       fill-rule="evenodd"
       clip-rule="evenodd"
       d="M 43.336883,58.860385 131.55442,7.9495394 c 7.1394,-4.1197596 15.31258,-4.1197596 22.45607,0 l 88.21675,50.9108456 c 7.1429,4.123273 11.23165,11.201799 11.23165,19.448347 v 26.795888 h 0.13656 1.6056 c 2.09216,0 3.80079,1.71291 3.80079,3.80021 v 0.52285 c 0,2.09216 -1.71291,3.80019 -3.80079,3.80019 h -0.80572 -0.80182 -0.13656 v 4.43912 c 3.93228,0.199 7.08263,3.47341 7.08263,7.45116 v 25.18757 c 0,3.97772 -3.15387,7.25234 -7.08263,7.45095 v 4.43969 h 0.13656 1.60559 c 2.09218,0 3.80079,1.71097 3.80079,3.80023 v 0.52089 c 0,2.08846 -1.71291,3.8 -3.80079,3.8 h -0.80572 -0.80184 -0.13655 v 31.50933 c 0,12.36983 -10.08764,22.45647 -22.45901,22.45647 h -36.77739 v -22.45296 -0.002 h 28.92006 c 4.32968,0 7.86045,-3.53021 7.86045,-7.8595 v -23.64984 h -1.73631 c -2.08866,0 -3.80079,-1.71096 -3.80079,-3.8 v -0.5209 c 0,-2.08847 1.7129,-3.80021 3.80079,-3.80021 h 1.73631 v -4.4397 c -3.92819,-0.19901 -7.08263,-3.47323 -7.08263,-7.45097 v -25.18806 c 0,-3.97774 3.15444,-7.24824 7.08263,-7.45115 v -4.43912 h -1.73631 c -2.08866,0 -3.80079,-1.70706 -3.80079,-3.8002 v -0.52285 c 0,-2.08808 1.7129,-3.8002 3.80079,-3.8002 h 1.73631 V 82.844432 c 0,-2.886968 -1.43198,-5.366199 -3.93188,-6.807926 -26.78557,-15.455976 -53.57483,-30.916245 -80.3606,-46.372418 -2.49677,-1.44173 -5.35994,-1.44173 -7.85673,0 L 58.493187,76.040021 c -2.500874,1.441727 -3.93227,3.920573 -3.93227,6.808517 v 51.571222 h 0.136558 1.605611 c 2.092177,0 3.80059,1.71292 3.80059,3.8 v 0.52287 c 0,2.09156 -1.709001,3.79999 -3.80059,3.79999 h -0.805728 -0.803783 -0.136558 v 51.42609 c 0,4.32928 3.530575,7.85948 7.860462,7.85948 h 17.46874 v -0.078 -1.60561 c 0,-2.09197 1.7129,-3.8 3.800591,-3.8 h 0.522838 c 2.091981,0 3.800591,1.70706 3.800591,3.8 v 0.80573 0.80182 0.0781 h 7.693266 c 0.618438,0 1.121774,0.50334 1.121774,1.12178 v 20.20804 c 0,0.61843 -0.503336,1.12176 -1.121774,1.12176 h -7.693266 v 1.79291 c 0,2.08847 -1.712901,3.8002 -3.800591,3.8002 H 83.68681 c -2.088458,0 -3.800591,-1.71095 -3.800591,-3.8002 v -1.79291 H 54.564816 c -12.368055,0 -22.459195,-10.08607 -22.459195,-22.45645 v -59.28537 h -1.736326 c -2.088459,0 -3.80059,-1.70902 -3.80059,-3.8002 v -0.52091 c 0,-2.08846 1.712914,-3.79999 3.80059,-3.79999 h 1.736326 V 78.311465 c 0,-8.246548 4.088342,-15.325072 11.231262,-19.448343 z"
       fill="#e83a15"
       id="path652"
       style="stroke-width:5.16181" />
    <path
       fill-rule="evenodd"
       clip-rule="evenodd"
       d="m 119.02833,233.11198 c 0.91303,-5.28115 3.33138,-11.1975 7.38443,-15.78998 3.31032,-3.75728 7.70809,-6.64855 13.25963,-7.63961 0.31215,-0.0586 0.60479,0.0151 0.86231,0.199 0.25556,0.19509 0.40774,0.45066 0.44676,0.7667 l 0.0976,0.70624 c 0.078,0.59309 -0.32776,1.13934 -0.91304,1.24664 -4.80259,0.8701 -8.62483,3.39538 -11.52273,6.68034 -3.66577,4.15898 -5.86114,9.51855 -6.68853,14.30553 -0.0976,0.59307 -0.65356,0.99887 -1.25055,0.92278 l -0.71014,-0.0976 c -0.31214,-0.039 -0.56769,-0.19509 -0.76084,-0.44675 -0.17559,-0.25948 -0.25168,-0.54627 -0.199,-0.85842 z m 42.48169,-55.87613 h 3.87493 c 0.69649,0 1.26811,0.56772 1.26811,1.26809 v 3.5694 c 2.69245,-0.98326 7.24609,-1.63097 12.40687,-1.63097 8.27288,0 14.97918,1.65828 14.97918,3.70832 0,2.04515 -6.7063,3.70713 -14.97918,3.70713 -5.16078,0 -9.71442,-0.64576 -12.40687,-1.63291 v 11.72406 h 5.32795 c 1.10812,0 2.01415,0.90131 2.01415,2.01003 v 1.86508 h 12.10856 v -1.6056 c 0,-2.09159 1.71292,-3.80001 3.80079,-3.80001 h 0.52089 c 2.09276,0 3.80079,1.70899 3.80079,3.80001 v 0.80572 0.80183 22.52729 1.79093 c 0,2.08848 -1.70706,3.80001 -3.80079,3.80001 h -0.52089 c -2.08866,0 -3.80079,-1.71097 -3.80079,-3.80001 v -1.79288 h -26.71434 c -17.26995,0 -24.64405,7.74633 -24.64405,24.6409 v 1.17837 c 0,0.61844 -0.50333,1.12178 -1.12178,1.12178 h -20.28899 c -0.61844,0 -1.12176,-0.50334 -1.12176,-1.12178 v -1.17837 c 0,-31.15757 17.02509,-46.55385 39.57655,-46.55385 v -2.48215 c 0,-1.10812 0.90524,-2.01005 2.01415,-2.01005 h 6.44312 v -11.81965 c -2.63941,1.05545 -7.35987,1.76169 -12.74109,1.76169 -8.27269,0 -14.97839,-1.66219 -14.97839,-3.71143 0,-2.04612 6.7057,-3.70832 14.97839,-3.70832 5.38494,0 10.10168,0.70429 12.74109,1.75779 v -3.72881 c -0.002,-0.69256 0.56379,-1.26028 1.26419,-1.26028 z"
       fill="#ffffff"
       id="path654"
       style="stroke-width:5.16181" />
    <path
       fill-rule="evenodd"
       clip-rule="evenodd"
       d="m 118.66956,278.12654 c -6.87601,-6.7449 2.56077,-14.50117 2.68563,-19.00995 1.35395,8.59907 -6.02171,9.0152 -2.68563,19.00995 z m -4.3369,-5.45184 c -0.28874,-7.94669 6.84092,-14.52849 10.31471,-25.20979 3.47439,10.6813 10.60249,17.2631 10.31549,25.20979 -0.53063,14.56403 -20.10267,14.56403 -20.6302,0 z"
       fill="#ffffff"
       id="path656"
       style="stroke-width:5.16181" />
    <path
       fill-rule="evenodd"
       clip-rule="evenodd"
       d="m 128.98895,110.40371 1.44175,-1.89238 0.97348,0.74134 -0.81938,1.08082 4.91555,3.74322 0.95595,-1.25444 1.02618,0.78037 -1.68755,2.21234 -6.91523,-5.26651 z m 59.20811,55.54274 c -0.88767,1.16079 -0.25946,3.12849 1.39296,4.38958 1.65633,1.26028 3.71594,1.34222 4.60378,0.17558 0.88768,-1.16081 0.26338,-3.1291 -1.39295,-4.38958 -1.65438,-1.2603 -3.71494,-1.33833 -4.6034,-0.17558 z m -45.30935,-43.1017 c -3.29278,-2.56078 -3.01907,-4.92589 -1.73632,-6.44254 l 1.36368,1.03789 c 5.77552,4.39992 12.25765,-3.36047 6.12338,-8.03389 l -6.06309,-4.61724 1.33833,-1.75779 -4.91613,-3.743408 -1.38905,1.822158 -0.97351,-0.74136 c 0.7316,-1.012528 0.0975,-4.215752 -2.50381,-7.521775 -3.56649,-4.542526 -9.95984,-8.921747 -13.66504,-4.816033 -5.80027,-4.421586 -7.94551,-5.920664 -13.36595,-10.051155 -9.395042,-1.974329 -15.532845,5.032801 -17.24809,21.177833 l 3.455663,2.63218 10.123537,-13.890561 c 0.30433,0.437004 1.10811,0.887684 1.55489,1.225176 l 8.07368,6.154974 -2.39417,2.357881 -2.35125,-1.788995 -6.2055,12.259385 3.66911,1.87874 27.16599,20.68075 1.35003,-1.06131 -20.24665,-15.42458 c -0.53262,-0.40773 -0.63795,-1.17834 -0.23021,-1.71486 l 0.57551,-0.75696 c 0.40775,-0.53258 1.18031,-0.63989 1.71292,-0.22629 l 20.94294,15.95718 z m 45.55459,51.55777 c 7.2461,5.51896 15.59332,-5.4339 8.3435,-10.95286 l -42.41771,-32.30473 -11.16395,8.78637 z"
       fill="#0052da"
       id="path658"
       style="stroke-width:5.16181" />
    <path
       fill-rule="evenodd"
       clip-rule="evenodd"
       d="m 103.75711,162.33626 -4.255342,-1.63683 -4.254975,-1.63682 -3.548722,2.8663 -3.548338,2.86592 0.706238,4.5031 0.710136,4.50371 4.258475,1.64072 4.255346,1.64072 3.548342,-2.86941 3.54872,-2.86589 -0.71014,-4.50353 z m 87.55673,-80.576933 c -4.21984,-1.012536 -8.33997,-0.530652 -12.47457,2.81263 -4.13457,3.341741 -6.35122,9.770222 -4.83769,15.164905 l -0.7433,0.600888 -1.11593,0.89937 -70.69201,55.62057 c -4.017539,-1.71486 -8.024142,-1.85338 -12.457033,1.72851 -4.436196,3.58344 -6.052344,11.90843 -1.822159,17.14705 4.234275,5.23821 12.7161,5.40541 17.149002,1.82216 4.43659,-3.58326 5.14027,-7.52901 4.3086,-11.81576 l 72.54618,-57.11908 c 4.95846,2.61034 11.70746,1.79682 15.84205,-1.54514 4.13478,-3.34191 5.47312,-7.269899 5.37049,-11.602688 l -9.91028,7.955258 -4.84121,-1.8046 -4.61784,-1.835819 -0.85841,-5.09267 -0.71793,-4.914966 z"
       fill="#0052da"
       id="path660"
       style="stroke-width:5.16181" />
  </g>
</svg>
