<?xml version="1.0" encoding="UTF-8" standalone="no"?>
<svg
   width="200"
   height="70"
   viewBox="0 0 200 70"
   fill="none"
   version="1.1"
   id="svg16"
   sodipodi:docname="logo.svg"
   inkscape:version="1.2.1 (9c6d41e410, 2022-07-14)"
   xmlns:inkscape="http://www.inkscape.org/namespaces/inkscape"
   xmlns:sodipodi="http://sodipodi.sourceforge.net/DTD/sodipodi-0.dtd"
   xmlns="http://www.w3.org/2000/svg"
   xmlns:svg="http://www.w3.org/2000/svg">
  <defs
     id="defs20" />
  <sodipodi:namedview
     id="namedview18"
     pagecolor="#505050"
     bordercolor="#eeeeee"
     borderopacity="1"
     inkscape:showpageshadow="0"
     inkscape:pageopacity="0"
     inkscape:pagecheckerboard="0"
     inkscape:deskcolor="#505050"
     showgrid="false"
     inkscape:zoom="4.277996"
     inkscape:cx="118.51343"
     inkscape:cy="30.621814"
     inkscape:window-width="1366"
     inkscape:window-height="705"
     inkscape:window-x="-8"
     inkscape:window-y="-8"
     inkscape:window-maximized="1"
     inkscape:current-layer="svg16" />
  <path
     fill-rule="evenodd"
     clip-rule="evenodd"
     d="M4.33156 13.9489L27.1188 0.798127C28.963 -0.266042 31.0742 -0.266042 32.9193 0.798127L55.7066 13.9489C57.5517 15.0139 58.6078 16.8423 58.6078 18.9725V25.8941H58.6417H59.0564C59.5968 25.8941 60.0381 26.3363 60.0381 26.8757V27.0106C60.0381 27.551 59.5959 27.9922 59.0564 27.9922H58.8482H58.6408H58.6078V29.1389C59.6235 29.1904 60.4372 30.0361 60.4372 31.0636V37.5697C60.4372 38.5972 59.6225 39.4431 58.6078 39.4944V40.6411H58.6417H59.0564C59.5968 40.6411 60.0381 41.0833 60.0381 41.6227V41.7576C60.0381 42.297 59.5959 42.7392 59.0564 42.7392H58.8482H58.6408H58.6078V50.8783C58.6078 54.0735 56.002 56.6789 52.8064 56.6789H43.3064V50.8792V50.8783H50.7768C51.8952 50.8783 52.8073 49.9664 52.8073 48.8481V42.7392H52.3586C51.8191 42.7392 51.3768 42.297 51.3768 41.7576V41.6227C51.3768 41.0833 51.8191 40.6411 52.3586 40.6411H52.8073V39.4944C51.7925 39.4431 50.9777 38.5972 50.9777 37.5697V31.0636C50.9777 30.0361 51.7925 29.1913 52.8073 29.1389V27.9922H52.3586C51.8191 27.9922 51.3768 27.551 51.3768 27.0106V26.8757C51.3768 26.3363 51.8191 25.8941 52.3586 25.8941H52.8073V20.144C52.8073 19.3981 52.4375 18.7578 51.7915 18.3853C44.8726 14.3929 37.9528 10.3995 31.0339 6.40703C30.3888 6.03457 29.6493 6.03457 29.0043 6.40703L8.24752 18.3863C7.60156 18.7587 7.23181 19.399 7.23181 20.1449V33.4663H7.26576H7.68044C8.22088 33.4663 8.66218 33.9085 8.66218 34.4479V34.5828C8.66218 35.1231 8.22088 35.5644 7.68044 35.5644H7.47223H7.26484H7.23181V48.8481C7.23181 49.9664 8.14378 50.8783 9.26226 50.8783H13.7746V50.859V50.4444C13.7746 49.904 14.2168 49.4628 14.7563 49.4628H14.8912C15.4316 49.4628 15.8729 49.904 15.8729 50.4444V50.6526V50.8599V50.8783H17.8602C18.0199 50.8783 18.1502 51.0086 18.1502 51.1681V56.3881C18.1502 56.5477 18.0199 56.678 17.8602 56.678H15.8729V57.1413C15.8729 57.6807 15.4307 58.1229 14.8912 58.1229H14.7563C14.2168 58.1229 13.7746 57.6807 13.7746 57.1413V56.678H7.23181C4.03704 56.678 1.4304 54.0726 1.4304 50.8774V35.5634H0.981735C0.44224 35.5634 0 35.1222 0 34.5818V34.447C0 33.9075 0.44224 33.4654 0.981735 33.4654H1.4304V18.9725C1.4304 16.8423 2.48645 15.0139 4.33156 13.9489Z"
     fill="#E83A15"
     id="path6" />
  <path
     fill-rule="evenodd"
     clip-rule="evenodd"
     d="M24.7453 58.3266C24.9791 57.1143 25.5984 55.7561 26.6362 54.702C27.4838 53.8394 28.6098 53.1758 30.0313 52.9483C30.1113 52.9353 30.1859 52.9516 30.2523 52.994C30.3178 53.038 30.3569 53.0975 30.3668 53.17L30.3896 53.3323C30.4087 53.4685 30.3059 53.594 30.1559 53.6184C28.9262 53.8182 27.9476 54.3979 27.2055 55.152C26.2669 56.1066 25.7048 57.3369 25.4929 58.4359C25.4665 58.5721 25.3256 58.6649 25.1728 58.6479L24.9909 58.6266C24.9109 58.6169 24.8454 58.5826 24.7962 58.5239C24.749 58.4644 24.7317 58.3983 24.7453 58.3266ZM35.6228 45.5H36.615C36.7933 45.5 36.9397 45.6304 36.9397 45.7911V46.6104C37.6291 46.3846 38.795 46.2362 40.1165 46.2362C42.2347 46.2362 43.9518 46.6169 43.9518 47.0873C43.9518 47.5569 42.2347 47.9384 40.1165 47.9384C38.795 47.9384 37.6291 47.7901 36.9397 47.5634V50.2547H38.3039C38.5877 50.2547 38.8196 50.4617 38.8196 50.7161V51.1441H41.9201V50.7756C41.9201 50.2954 42.3584 49.9032 42.8932 49.9032H43.0268C43.5626 49.9032 44 50.2954 44 50.7756V50.9607V51.1449V56.3162V56.727C44 57.2065 43.5626 57.5994 43.0268 57.5994H42.8932C42.3584 57.5994 41.9201 57.2065 41.9201 56.727V56.3153H35.0798C30.6579 56.3153 28.7698 58.0935 28.7698 61.9717V62.2423C28.7698 62.3842 28.6406 62.5 28.4824 62.5H23.2874C23.1292 62.5 23 62.3842 23 62.2423V61.9717C23 54.8193 27.3592 51.2851 33.1335 51.2851V50.7153C33.1335 50.4609 33.3654 50.2538 33.6492 50.2538H35.299V47.5406C34.6232 47.7828 33.4146 47.945 32.0367 47.945C29.9185 47.945 28.2014 47.5634 28.2014 47.0931C28.2014 46.6234 29.9185 46.2419 32.0367 46.2419C33.4154 46.2419 34.6232 46.4033 35.299 46.6455V45.7894C35.2981 45.6304 35.4436 45.5 35.6228 45.5Z"
     fill="#00045F"
     id="path8" />
  <path
     fill-rule="evenodd"
     clip-rule="evenodd"
     d="M24.8419 68.7887C23.5098 67.2953 25.338 65.578 25.3622 64.5798C25.6244 66.4837 24.1956 66.5758 24.8419 68.7887ZM24.0017 67.5816C23.9456 65.8222 25.327 64.3649 26 62C26.6731 64.3649 28.054 65.8222 27.9984 67.5816C27.8957 70.8061 24.1039 70.8061 24.0017 67.5816Z"
     fill="#00045F"
     id="path10" />
  <path
     fill-rule="evenodd"
     clip-rule="evenodd"
     d="M26.4563 27.262L26.8287 26.7731L27.0802 26.9648L26.8683 27.2437L28.1381 28.2106L28.3849 27.8868L28.65 28.0886L28.2142 28.6602L26.4279 27.2997L26.4563 27.262ZM41.7503 41.6091C41.5209 41.9091 41.6832 42.4173 42.1099 42.7429C42.5375 43.0686 43.0696 43.0897 43.299 42.7888C43.5284 42.4888 43.3669 41.9806 42.9393 41.6549C42.5118 41.3293 41.9796 41.3091 41.7503 41.6091ZM30.0465 30.4756C29.1959 29.8142 29.2666 29.2033 29.5979 28.8115L29.9501 29.0794C31.442 30.216 33.1165 28.2115 31.5319 27.0043L29.9657 25.8117L30.3117 25.3576L29.0418 24.3906L28.6831 24.8612L28.4317 24.6695C28.6207 24.4081 28.4556 23.5806 27.7848 22.7265C26.8637 21.5531 25.2122 20.422 24.2551 21.4825C22.7569 20.3403 22.2027 19.9532 20.8026 18.8863C18.3758 18.3763 16.7903 20.1862 16.3472 24.3567L17.2399 25.0365L19.8548 21.4485C19.9337 21.5614 20.1411 21.6779 20.2566 21.765L22.3421 23.3549L21.7238 23.964L21.1164 23.5017L19.5135 26.6685L20.4612 27.1538L27.4784 32.4957L27.8271 32.2215L22.5973 28.2372C22.4596 28.1317 22.4321 27.9327 22.5376 27.7941L22.6862 27.5987C22.7917 27.4611 22.9908 27.4336 23.1284 27.54L28.5381 31.6619L30.0465 30.4756ZM41.8135 43.7933C43.6852 45.219 45.8414 42.3897 43.9688 40.9642L33.0119 32.6196L30.1282 34.8892L41.8135 43.7933Z"
     fill="#0052DA"
     id="path12" />
  <path
     fill-rule="evenodd"
     clip-rule="evenodd"
     d="M19.9384 40.6779L18.8392 40.255L17.74 39.832L16.8235 40.5724L15.9068 41.3127L16.0895 42.4759L16.273 43.6392L17.373 44.063L18.4722 44.4869L19.3888 43.7456L20.3054 43.0053L20.1219 41.8421L19.9384 40.6779ZM42.555 19.8642C41.465 19.6028 40.4006 19.7275 39.3327 20.5908C38.2647 21.454 37.6921 23.1145 38.0831 24.508L37.8913 24.663L37.6032 24.8951L19.3429 39.2624C18.3052 38.8193 17.2702 38.7835 16.1252 39.7091C14.9793 40.6347 14.5618 42.7851 15.6545 44.1383C16.7482 45.4914 18.9392 45.5345 20.0843 44.6089C21.2303 43.6832 21.4119 42.664 21.1972 41.5567L39.9364 26.8024C41.2172 27.4767 42.9605 27.2666 44.0285 26.4033C45.0965 25.5401 45.4424 24.5254 45.4158 23.4062L42.8559 25.4612L41.6054 24.9951L40.4126 24.5208L40.1906 23.2053L40.0052 21.9356L42.555 19.8642Z"
     fill="#0052DA"
     id="path14" />
  <text
     xml:space="preserve"
     style="font-weight:bold;font-size:9.9688px;font-family:'Samsung Sans';-inkscape-font-specification:'Samsung Sans Bold';text-align:center;text-anchor:middle;fill:#ff6600;stroke-width:0.116822"
     x="129.65904"
     y="53.230556"
     id="text404"><tspan
       sodipodi:role="line"
       id="tspan402"
       x="129.65904"
       y="53.230556"
       style="fill:#ff6600;stroke-width:0.116822">CONSTRUCTION &amp; PROJECTS</tspan></text>
  <text
     xml:space="preserve"
     style="font-weight:bold;font-size:26.1538px;font-family:'Samsung Sans';-inkscape-font-specification:'Samsung Sans Bold';text-align:center;text-anchor:middle;fill:#000080;stroke-width:0.30649"
     x="129.04654"
     y="25.896498"
     id="text510"><tspan
       sodipodi:role="line"
       id="tspan508"
       x="129.04654"
       y="25.896498"
       style="fill:#000080;stroke-width:0.30649">MADUVHA</tspan><tspan
       sodipodi:role="line"
       x="129.04654"
       y="58.588745"
       style="fill:#000080;stroke-width:0.30649"
       id="tspan512" /></text>
  <text
     xml:space="preserve"
     style="font-weight:bold;font-size:21.6698px;font-family:'Samsung Sans';-inkscape-font-specification:'Samsung Sans Bold';text-align:center;text-anchor:middle;fill:#000080;stroke-width:0.253944"
     x="127.85267"
     y="43.049953"
     id="text631"><tspan
       sodipodi:role="line"
       id="tspan629"
       x="127.85267"
       y="43.049953"
       style="stroke-width:0.253944">OTHE</tspan></text>
</svg>
