<?xml version="1.0" encoding="UTF-8" standalone="no"?>
<svg
   width="150"
   height="54"
   viewBox="0 0 150 54"
   fill="none"
   version="1.1"
   id="svg662"
   sodipodi:docname="logo-small.svg"
   inkscape:version="1.2.1 (9c6d41e410, 2022-07-14)"
   xmlns:inkscape="http://www.inkscape.org/namespaces/inkscape"
   xmlns:sodipodi="http://sodipodi.sourceforge.net/DTD/sodipodi-0.dtd"
   xmlns="http://www.w3.org/2000/svg"
   xmlns:svg="http://www.w3.org/2000/svg">
  <defs
     id="defs666" />
  <sodipodi:namedview
     id="namedview664"
     pagecolor="#505050"
     bordercolor="#eeeeee"
     borderopacity="1"
     inkscape:showpageshadow="0"
     inkscape:pageopacity="0"
     inkscape:pagecheckerboard="0"
     inkscape:deskcolor="#505050"
     showgrid="false"
     inkscape:zoom="4.0333333"
     inkscape:cx="99.173554"
     inkscape:cy="38.429752"
     inkscape:window-width="1366"
     inkscape:window-height="705"
     inkscape:window-x="-8"
     inkscape:window-y="-8"
     inkscape:window-maximized="1"
     inkscape:current-layer="svg662" />
  <text
     xml:space="preserve"
     style="font-weight:bold;font-size:7.49743px;font-family:'Samsung Sans';-inkscape-font-specification:'Samsung Sans Bold';text-align:center;text-anchor:middle;fill:#ff6600;stroke-width:0.0878605"
     x="96.40506"
     y="41.462204"
     id="text404"><tspan
       sodipodi:role="line"
       id="tspan402"
       x="96.40506"
       y="41.462204"
       style="fill:#ff6600;stroke-width:0.0878605">CONSTRUCTION &amp; PROJECTS</tspan></text>
  <text
     xml:space="preserve"
     style="font-weight:bold;font-size:19.67px;font-family:'Samsung Sans';-inkscape-font-specification:'Samsung Sans Bold';text-align:center;text-anchor:middle;fill:#ffffff;stroke-width:0.230508"
     x="95.944397"
     y="20.904564"
     id="text510"><tspan
       sodipodi:role="line"
       id="tspan508"
       x="95.944397"
       y="20.904564"
       style="fill:#ffffff;stroke-width:0.230508">MADUVHA</tspan><tspan
       sodipodi:role="line"
       x="95.944397"
       y="45.492062"
       style="fill:#ffffff;stroke-width:0.230508"
       id="tspan512" /></text>
  <text
     xml:space="preserve"
     style="font-weight:bold;font-size:16.2977px;font-family:'Samsung Sans';-inkscape-font-specification:'Samsung Sans Bold';text-align:center;text-anchor:middle;fill:#ffffff;stroke-width:0.190989"
     x="95.046501"
     y="33.805481"
     id="text631"><tspan
       sodipodi:role="line"
       id="tspan629"
       x="95.046501"
       y="33.805481"
       style="fill:#ffffff;stroke-width:0.190989">OTHE</tspan></text>
  <path
     fill-rule="evenodd"
     clip-rule="evenodd"
     d="M3.24768 10.4616L20.3381 0.598593C21.7212 -0.199531 23.3046 -0.199531 24.6885 0.598593L41.7788 10.4616C43.1626 11.2604 43.9547 12.6317 43.9547 14.2293V19.4205H43.9802H44.2912C44.6965 19.4205 45.0275 19.7522 45.0275 20.1567V20.2579C45.0275 20.6632 44.6958 20.9941 44.2912 20.9941H44.135H43.9795H43.9547V21.8541C44.7165 21.8927 45.3268 22.527 45.3268 23.2976V28.1772C45.3268 28.9478 44.7158 29.5822 43.9547 29.6207V30.4808H43.9802H44.2912C44.6965 30.4808 45.0275 30.8124 45.0275 31.217V31.3181C45.0275 31.7227 44.6958 32.0543 44.2912 32.0543H44.135H43.9795H43.9547V38.1586C43.9547 40.555 42.0004 42.5091 39.6037 42.5091H32.4788V38.1593V38.1586H38.0815C38.9203 38.1586 39.6043 37.4747 39.6043 36.636V32.0543H39.2678C38.8632 32.0543 38.5315 31.7227 38.5315 31.3181V31.217C38.5315 30.8124 38.8632 30.4808 39.2678 30.4808H39.6043V29.6207C38.8433 29.5822 38.2322 28.9478 38.2322 28.1772V23.2976C38.2322 22.527 38.8433 21.8934 39.6043 21.8541V20.9941H39.2678C38.8632 20.9941 38.5315 20.6632 38.5315 20.2579V20.1567C38.5315 19.7522 38.8632 19.4205 39.2678 19.4205H39.6043V15.1079C39.6043 14.5486 39.327 14.0683 38.8426 13.789C33.6534 10.7947 28.4635 7.79958 23.2743 4.80526C22.7906 4.52591 22.2359 4.52591 21.7522 4.80526L6.18465 13.7897C5.70018 14.069 5.42286 14.5492 5.42286 15.1087V25.0996H5.44832H5.75934C6.16467 25.0996 6.49564 25.4313 6.49564 25.8358V25.937C6.49564 26.3422 6.16467 26.6732 5.75934 26.6732H5.60318H5.44764H5.42286V36.636C5.42286 37.4747 6.10684 38.1586 6.94569 38.1586H10.3299V38.1442V37.8332C10.3299 37.4279 10.6616 37.097 11.0662 37.097H11.1674C11.5727 37.097 11.9037 37.4279 11.9037 37.8332V37.9894V38.1448V38.1586H13.3941C13.5139 38.1586 13.6116 38.2563 13.6116 38.376V42.2909C13.6116 42.4107 13.5139 42.5084 13.3941 42.5084H11.9037V42.8558C11.9037 43.2604 11.572 43.592 11.1674 43.592H11.0662C10.6616 43.592 10.3299 43.2604 10.3299 42.8558V42.5084H5.42286C3.02679 42.5084 1.07182 40.5544 1.07182 38.1579V26.6725H0.735322C0.330703 26.6725 -0.000976562 26.3415 -0.000976562 25.9363V25.8352C-0.000976562 25.4306 0.330703 25.099 0.735322 25.099H1.07182V14.2293C1.07182 12.6317 1.86386 11.2604 3.24768 10.4616Z"
     fill="#E83A15"
     id="path652" />
  <path
     fill-rule="evenodd"
     clip-rule="evenodd"
     d="M17.9114 44.2194C18.0882 43.1963 18.5568 42.0501 19.342 41.1604C19.9833 40.4325 20.8353 39.8724 21.9108 39.6804C21.9713 39.6694 22.0278 39.6832 22.078 39.719C22.1275 39.7561 22.1571 39.8064 22.1647 39.8676L22.1819 40.0045C22.1964 40.1194 22.1186 40.2254 22.0051 40.246C21.0747 40.4146 20.3342 40.9038 19.7728 41.5402C19.0626 42.3459 18.6373 43.3842 18.477 44.3116C18.457 44.4266 18.3504 44.505 18.2348 44.4905L18.0972 44.4726C18.0366 44.4644 17.9871 44.4355 17.9499 44.3859C17.9141 44.3357 17.901 44.28 17.9114 44.2194ZM26.1414 33.3945H26.8921C27.027 33.3945 27.1378 33.5046 27.1378 33.6402V34.3317C27.6594 34.1411 28.5416 34.0158 29.5414 34.0158C31.1441 34.0158 32.4433 34.3371 32.4433 34.7342C32.4433 35.1304 31.1441 35.4524 29.5414 35.4524C28.5416 35.4524 27.6594 35.3273 27.1378 35.1359V37.4072H28.17C28.3847 37.4072 28.5602 37.5819 28.5602 37.7966V38.1578H30.906V37.8468C30.906 37.4416 31.2377 37.1106 31.6423 37.1106H31.7434C32.1488 37.1106 32.4797 37.4416 32.4797 37.8468V38.003V38.1585V42.5227V42.8695C32.4797 43.2741 32.1488 43.6057 31.7434 43.6057H31.6423C31.2377 43.6057 30.906 43.2741 30.906 42.8695V42.522H25.7306C22.3849 42.522 20.9563 44.0227 20.9563 47.2957V47.5241C20.9563 47.6438 20.8586 47.7415 20.7389 47.7415H16.8083C16.6885 47.7415 16.5908 47.6438 16.5908 47.5241V47.2957C16.5908 41.2595 19.8891 38.2768 24.258 38.2768V37.7959C24.258 37.5812 24.4334 37.4065 24.6482 37.4065H25.8964V35.1167C25.3851 35.321 24.4706 35.458 23.4281 35.458C21.8254 35.458 20.5263 35.1359 20.5263 34.739C20.5263 34.3426 21.8254 34.0206 23.4281 34.0206C24.4713 34.0206 25.3851 34.1569 25.8964 34.3612V33.6388C25.8957 33.5046 26.0058 33.3945 26.1414 33.3945Z"
     fill="white"
     id="path654" />
  <path
     fill-rule="evenodd"
     clip-rule="evenodd"
     d="M17.8419 52.9401C16.5098 51.6334 18.338 50.1308 18.3622 49.2573C18.6244 50.9232 17.1956 51.0038 17.8419 52.9401ZM17.0017 51.8839C16.9456 50.3444 18.327 49.0693 19 47C19.6731 49.0693 21.054 50.3444 20.9984 51.8839C20.8957 54.7054 17.1039 54.7054 17.0017 51.8839Z"
     fill="white"
     id="path656" />
  <path
     fill-rule="evenodd"
     clip-rule="evenodd"
     d="M19.8411 20.4471L20.1204 20.0804L20.309 20.2242L20.1501 20.4334L21.1024 21.1586L21.2875 20.9157L21.4864 21.0671L21.1595 21.4957L19.8198 20.4754L19.8411 20.4471ZM31.3115 31.2074C31.1395 31.4324 31.2613 31.8135 31.5812 32.0578C31.9019 32.302 32.3011 32.3178 32.4731 32.0922C32.6451 31.8672 32.524 31.486 32.2033 31.2418C31.8827 30.9975 31.4836 30.9824 31.3115 31.2074ZM22.5337 22.8573C21.8958 22.3612 21.9488 21.903 22.1973 21.6092L22.4615 21.8102C23.5804 22.6626 24.8362 21.1592 23.6478 20.2538L22.4732 19.3593L22.7326 19.0188L21.7802 18.2936L21.5112 18.6465L21.3226 18.5027C21.4644 18.3066 21.3405 17.686 20.8375 17.0455C20.1466 16.1655 18.908 15.3171 18.1902 16.1125C17.0665 15.2559 16.6509 14.9655 15.6008 14.1653C13.7807 13.7828 12.5916 15.1403 12.2593 18.2681L12.9288 18.778L14.89 16.087C14.9491 16.1717 15.1047 16.259 15.1914 16.3244L16.7555 17.5168L16.2917 17.9736L15.8362 17.6269L14.634 20.0019L15.3448 20.3659L20.6077 24.3724L20.8692 24.1667L16.9468 21.1785C16.8436 21.0994 16.823 20.9501 16.9021 20.8462L17.0135 20.6996C17.0927 20.5964 17.242 20.5758 17.3452 20.6556L21.4025 23.747L22.5337 22.8573ZM31.359 32.8456C32.7628 33.9148 34.3799 31.7929 32.9754 30.7237L24.7578 24.4653L22.595 26.1675L31.359 32.8456Z"
     fill="#0052DA"
     id="path658" />
  <path
     fill-rule="evenodd"
     clip-rule="evenodd"
     d="M14.9529 30.508L14.1285 30.1908L13.3042 29.8736L12.6167 30.4289L11.9293 30.9841L12.0662 31.8565L12.2039 32.729L13.0289 33.0468L13.8533 33.3647L14.5407 32.8088L15.2282 32.2536L15.0906 31.3811L14.9529 30.508ZM31.9153 14.8978C31.0978 14.7017 30.2996 14.7952 29.4986 15.4427C28.6976 16.0901 28.2682 17.3355 28.5614 18.3806L28.4175 18.4969L28.2015 18.671L14.5063 29.4464C13.728 29.114 12.9518 29.0872 12.093 29.7814C11.2336 30.4756 10.9205 32.0884 11.74 33.1033C12.5603 34.1181 14.2035 34.1505 15.0623 33.4562C15.9218 32.762 16.0581 31.9976 15.897 31.1671L29.9514 20.1014C30.912 20.6071 32.2195 20.4495 33.0205 19.8021C33.8215 19.1547 34.0808 18.3937 34.0609 17.5543L32.141 19.0955L31.2031 18.746L30.3085 18.3902L30.142 17.4036L30.003 16.4514L31.9153 14.8978Z"
     fill="#0052DA"
     id="path660" />
</svg>
